<svg width="1440" height="137" viewBox="0 0 1440 135" fill="none" xmlns="http://www.w3.org/2000/svg">
<path fill-rule="evenodd" clip-rule="evenodd" d="M0 0C16 0.500387 67 4.5 96.5 23.5C126 42.5 240.294 102.222 360.147 95.9637C480 89.7052 599.853 25.5556 720.294 19.2971C840.147 13.0385 960 64.1496 1079.85 70.4081C1200.29 76.6667 1317.5 18.9996 1371 10C1424.5 1.0004 1426 0.000499934 1440 0L1440 135H1380.07C1320.15 135 1200.29 135 1079.85 135C960 135 840.147 135 720.294 135C599.853 135 480 135 360.147 135C240.294 135 119.853 135 59.9266 135H0V0Z" fill="#929AAB"/>
</svg>
