<svg width="1440" height="143" viewBox="0 0 1440 141" fill="none" xmlns="http://www.w3.org/2000/svg">
<path fill-rule="evenodd" clip-rule="evenodd" d="M0 5C11.1829 4.98825 20.5 7 38 11Z" fill="#2C2C2C"/>
<path d="M0 141V5C11.1829 4.98825 20.5 7 38 11C55.5 15 105.412 29.2071 140.833 34.3C169.906 38.48 207.627 30.465 243.568 22.8282C252.338 20.9647 261.002 19.1237 269.408 17.488C323.161 7.02861 376.914 -3.43075 430.667 2.29999C474.566 7.16197 518.465 23.0288 562.364 38.8957C615.076 57.9479 667.788 77 720.5 77C773.212 77 825.924 57.9479 878.636 38.8957C922.535 23.0288 966.434 7.16197 1010.33 2.29999C1067.36 -3.78003 1124.39 8.3637 1181.42 20.5074C1221 28.9361 1236.42 35.6647 1276 38C1339.95 41.5083 1353.29 34.9585 1376 25C1404.5 12.5 1428 5 1440 4.99999V141H1300.17H1010.33H720.5H430.667H140.833H0Z" fill="#2C2C2C"/>
</svg>
